<svg version="1.1" viewBox="0.0 0.0 960.0 720.0" fill="none" stroke="none" stroke-linecap="square" stroke-miterlimit="10" xmlns:xlink="http://www.w3.org/1999/xlink" xmlns="http://www.w3.org/2000/svg"><clipPath id="p.0"><path d="m0 0l960.0 0l0 720.0l-960.0 0l0 -720.0z" clip-rule="nonzero"/></clipPath><g clip-path="url(#p.0)"><path fill="#000000" fill-opacity="0.0" d="m0 0l960.0 0l0 720.0l-960.0 0z" fill-rule="evenodd"/><path fill="#b33000" d="m616.9303 321.34335l-237.49106 33.433594l11.227203 79.72751l237.49103 -33.433594z" fill-rule="evenodd"/><path fill="#8f2600" d="m379.43924 354.77695l-47.59671 -35.84781l11.227173 79.72751l47.59674 35.84781z" fill-rule="evenodd"/><path fill="#c25933" d="m616.9303 321.34335l-47.59674 -35.84781l-237.49103 33.433594l47.59671 35.84781z" fill-rule="evenodd"/><path fill="#000000" fill-opacity="0.0" d="m616.9303 321.34335l-47.59674 -35.84781l-237.49103 33.433594l11.227173 79.72751l47.59674 35.84781l237.49103 -33.433594zm0 0l-237.49106 33.433594l-47.59671 -35.84781m47.59671 35.84781l11.227203 79.72751" fill-rule="evenodd"/><path stroke="#b33000" stroke-width="1.0" stroke-linejoin="round" stroke-linecap="butt" d="m616.9303 321.34335l-47.59674 -35.84781l-237.49103 33.433594l11.227173 79.72751l47.59674 35.84781l237.49103 -33.433594zm0 0l-237.49106 33.433594l-47.59671 -35.84781m47.59671 35.84781l11.227203 79.72751" fill-rule="evenodd"/></g></svg>